<svg width="26" height="26" viewBox="0 0 26 26" fill="none" xmlns="http://www.w3.org/2000/svg">
    <path fill-rule="evenodd" clip-rule="evenodd"
        d="M8.24842 0.0438095C6.60927 0.270888 5.24306 1.52437 4.80858 3.19983C4.58293 4.07012 4.77112 5.29886 5.24515 6.05007C5.35589 6.22552 5.50047 6.46601 5.5665 6.58447L5.68645 6.79986L4.14219 6.79217C3.29282 6.78792 2.70842 6.80361 2.84354 6.82712L3.08922 6.86977L2.70455 6.9198C2.0201 7.00872 1.34824 7.56091 1.16048 8.18879C1.06215 8.51766 1.05582 12.1865 1.15298 12.548C1.23621 12.8577 1.62997 13.3117 1.96286 13.4819C2.08956 13.5467 2.381 13.6269 2.61052 13.6601C2.85257 13.6952 4.89334 13.7211 7.47104 13.7218L11.9143 13.723L11.8932 10.3383L11.8721 6.95371H13.0223H14.1725L14.1711 10.323L14.1696 13.6922H18.8864H23.6032L23.9242 13.5468C24.2593 13.395 24.6908 12.9811 24.8156 12.6917C24.9153 12.4606 24.9575 8.82708 24.8663 8.33083C24.7873 7.90098 24.5671 7.5675 24.152 7.24922C23.7 6.90263 23.4426 6.8614 21.7299 6.8614C20.9023 6.8614 20.2942 6.851 20.3787 6.83832C20.5029 6.81967 20.5117 6.8078 20.4251 6.77611C20.3308 6.74164 20.3446 6.69998 20.5393 6.42995C21.2936 5.3836 21.489 4.07775 21.0778 2.83121C20.7116 1.72111 19.7526 0.688245 18.7335 0.306211C17.553 -0.136315 15.9925 -0.0954531 14.983 0.404489C14.3281 0.728738 13.6172 1.45287 13.2848 2.1341C13.1497 2.41103 13.0214 2.63946 12.9997 2.6418C12.9781 2.64407 12.9141 2.53029 12.8577 2.38887C12.7017 1.99822 12.1639 1.25385 11.815 0.945601C11.4135 0.590952 10.6373 0.20658 10.091 0.092056C9.69551 0.00916307 8.68867 -0.0172371 8.24842 0.0438095ZM8.73123 2.33533C8.05311 2.44143 7.38057 2.99362 7.20399 3.58925C6.96157 4.4071 7.15442 5.36693 7.67606 5.93875C8.29461 6.6169 8.98569 6.79266 10.8894 6.75604L11.8107 6.73832L11.7944 5.78447C11.7746 4.63449 11.6985 4.01442 11.5382 3.69971C11.3609 3.35153 10.5506 2.54444 10.4647 2.63054C10.4449 2.65029 10.4288 2.63497 10.4288 2.59644C10.4288 2.4202 9.2993 2.24653 8.73123 2.33533ZM16.2776 2.3394C15.7968 2.40967 15.3449 2.65989 14.95 3.07472C14.3304 3.72556 14.1808 4.26372 14.1773 5.85481C14.1757 6.56478 14.1903 6.70017 14.2725 6.73174C14.326 6.75229 14.9158 6.76909 15.5834 6.76909C16.6291 6.76909 16.8456 6.75241 17.1472 6.64841C17.7038 6.45653 18.1 6.21149 18.3894 5.87985C18.7614 5.45388 18.8727 5.09677 18.8701 4.3383C18.8676 3.61737 18.7576 3.30371 18.365 2.89835C18.0705 2.59429 17.721 2.42973 17.1845 2.34253C16.7468 2.27133 16.7435 2.27133 16.2776 2.3394ZM10.0115 6.87623C10.2381 6.88798 10.625 6.88811 10.8714 6.87635C11.1178 6.86466 10.945 6.88512 10.4721 6.88506C9.99912 6.88493 9.785 6.86441 10.0115 6.87623ZM6.02198 15.1845L2.75142 15.201V19.2283C2.75142 21.9218 2.77383 23.3634 2.81904 23.5816C2.99445 24.4269 3.62056 25.2922 4.29604 25.6225C4.88511 25.9106 5.05015 25.9233 8.57087 25.9513L11.9029 25.9777L11.9022 20.7888C11.9018 17.935 11.8844 15.4961 11.8634 15.3692L11.8253 15.1384L10.5589 15.1532C9.86245 15.1614 7.82082 15.1755 6.02198 15.1845ZM14.1346 16.9073C14.1569 17.8467 14.1752 20.2769 14.1752 22.3077L14.1753 26L17.4766 25.9646C21.2027 25.9246 21.2706 25.917 21.9641 25.4643C22.4297 25.1604 22.7059 24.8366 22.9558 24.3016C23.2397 23.6936 23.2712 23.1216 23.2517 18.923L23.2347 15.2307L18.6644 15.2149L14.0942 15.1991L14.1346 16.9073Z"
        fill="#007aff" />
</svg>